<svg width="149" height="44" viewBox="0 0 149 44" fill="none" xmlns="http://www.w3.org/2000/svg">
<path d="M51.0968 27.5974H42.7178L43.1628 25.1174H43.1788L49.3318 18.6304H44.2917L44.7368 16.1504H53.1368L52.6918 18.6304L46.5388 25.1174H51.5448L51.0968 27.5974Z" fill="white"/>
<path d="M61.6534 16.1455L59.6534 27.5935H56.7754L58.7944 16.1455H61.6534Z" fill="white"/>
<path d="M72.7364 16.1455L70.7364 27.5935H67.8584L65.8584 21.3286L64.7774 27.5935H61.8994L63.9184 16.1455H66.8754L68.8464 21.9965L69.8804 16.1455H72.7364Z" fill="white"/>
<path d="M76.0122 24.3343C76.0122 25.0676 76.5395 25.4342 77.5942 25.4342C78.6489 25.4342 79.1762 25.1056 79.1762 24.4482C79.1722 24.2695 79.1198 24.0952 79.0245 23.944C78.9292 23.7927 78.7947 23.6701 78.6352 23.5893C78.225 23.3456 77.7836 23.1586 77.3232 23.0332C76.8085 22.8846 76.2945 22.7122 75.7812 22.5162C75.273 22.3246 74.8216 22.0074 74.4692 21.5942C74.1022 21.1567 73.9098 20.599 73.9292 20.0282C73.9292 17.3676 75.6408 16.0373 79.0642 16.0373C80.061 15.9697 81.0539 16.2173 81.9022 16.7452C82.2129 16.967 82.4636 17.2627 82.6315 17.6056C82.7995 17.9484 82.8795 18.3278 82.8642 18.7093C82.8655 19.0074 82.8254 19.3041 82.7452 19.5912C82.6964 19.8033 82.6133 20.006 82.4992 20.1913L82.3722 20.3822H79.5582C79.6745 20.2593 79.7654 20.1145 79.8255 19.9563C79.8856 19.798 79.9136 19.6294 79.9082 19.4602C79.9082 18.7716 79.4576 18.4269 78.5562 18.4263C77.4229 18.4263 76.8562 18.7866 76.8562 19.5072C76.8575 19.6866 76.9089 19.862 77.0045 20.0137C77.1 20.1655 77.236 20.2876 77.3972 20.3663C77.8071 20.5975 78.2494 20.766 78.7092 20.8663C79.2332 20.991 79.7505 21.1422 80.2592 21.3193C80.772 21.4954 81.2279 21.8062 81.5792 22.2192C81.953 22.6779 82.1453 23.258 82.1192 23.8492C82.1636 24.4086 82.0776 24.9708 81.868 25.4913C81.6584 26.0119 81.3309 26.4767 80.9112 26.8492C79.8166 27.5846 78.5058 27.9292 77.1911 27.8273C75.5165 27.8273 74.3718 27.5306 73.7572 26.9372C73.5224 26.6935 73.3406 26.4039 73.2229 26.0866C73.1052 25.7693 73.0542 25.4311 73.0732 25.0932C73.0774 24.7676 73.1109 24.443 73.1732 24.1233L73.2212 23.8692H76.0832L76.0512 24.0602C76.0296 24.1501 76.0165 24.2419 76.0122 24.3343V24.3343Z" fill="white"/>
<path d="M94.6144 18.6255H90.7034L89.1294 27.5925H86.2515L87.8254 18.6255H83.8984L84.3434 16.1455H95.0594L94.6144 18.6255Z" fill="white"/>
<path d="M99.2257 16.1455L97.2257 27.5935H94.3477L96.3667 16.1455H99.2257Z" fill="white"/>
<path d="M110.801 18.6255H106.89L105.316 27.5925H102.438L104.012 18.6255H100.085L100.53 16.1455H111.247L110.801 18.6255Z" fill="white"/>
<path d="M118.424 26.7585C117.397 27.5222 116.132 27.8971 114.855 27.8165C114.276 27.8827 113.69 27.8217 113.137 27.6377C112.584 27.4537 112.078 27.1513 111.655 26.7515C111.202 26.1792 110.976 25.4607 111.019 24.7325C111.023 24.3108 111.065 23.8904 111.146 23.4765L112.434 16.1465H115.296L114.008 23.4125C113.965 23.686 113.943 23.9626 113.944 24.2395C113.944 24.9815 114.389 25.3525 115.28 25.3525C115.74 25.3756 116.193 25.2282 116.552 24.9385C116.938 24.5183 117.173 23.9813 117.22 23.4125L118.508 16.1465H121.37L120.082 23.4765C119.936 24.7326 119.348 25.8959 118.424 26.7585V26.7585Z" fill="white"/>
<path d="M132.854 18.6255H128.943L127.369 27.5925H124.491L126.065 18.6255H122.134L122.579 16.1455H133.295L132.854 18.6255Z" fill="white"/>
<path d="M140.565 27.5974H132.583L134.603 16.1494H142.585L142.14 18.6294H137.02L136.654 20.7754H140.884L140.439 23.2554H136.21L135.892 25.1154H141.012L140.565 27.5974Z" fill="white"/>
<path d="M24.9865 28.9169L24.8024 29.9429H10.9915L11.7255 25.8558L15.1885 22.2148H11.8094L9.95148 24.1688L9.44543 24.7009L9.31543 25.4238L8.58148 29.5109L8.06445 32.3918H26.8455L27.2075 30.3759L27.4695 28.9178H24.9814L24.9865 28.9169Z" fill="#00FFB0"/>
<path d="M28.1552 8.62793H12.2742L11.9122 10.6439L11.6372 12.1769H8.66815L8.36816 13.877H11.3372L11.1842 14.7269L10.6672 17.608H16.1922L13.4382 20.5079H16.8172L21.8992 15.1639H13.5992L14.3332 11.077H28.1662L27.4332 15.1639L17.2942 25.853H25.5472L25.3032 27.2109H27.7912L27.9572 26.2859L28.4742 23.405H22.9922L29.2102 16.8499L29.7102 16.319L29.8392 15.598L30.5732 11.5109L31.0902 8.62994L28.1552 8.62793Z" fill="#00FFB0"/>
<path d="M27.9766 22.215L26.4766 22.2399L31.5076 17.0029L32.9456 8.54395L33.9855 8.72095L32.4926 17.499L27.9766 22.215Z" fill="white"/>
<path d="M10.4078 19.0352L10.2188 20.0901H12.3358L13.2358 19.0352H10.4078Z" fill="white"/>
<path d="M31.5571 28.1672H30.5431L31.3431 23.4062H30.2731L28.4551 34.2502H7.72711L7.53711 35.3052H29.3461L30.2571 29.8702H33.2571L33.5571 28.1702L31.5571 28.1672Z" fill="white"/>
</svg>
